{"accessors":[{"bufferView":2,"componentType":5126,"count":2399,"max":[0.09999999403953552,0.19999998807907104,0.09999999403953552],"min":[-0.09999999403953552,0,-0.09999999403953552],"type":"VEC3"},{"bufferView":2,"byteOffset":28788,"componentType":5126,"count":2399,"max":[1,1,1],"min":[-1,-1,-1],"type":"VEC3"},{"bufferView":1,"componentType":5126,"count":2399,"max":[1,1],"min":[0,0],"type":"VEC2"},{"bufferView":0,"componentType":5125,"count":13536,"type":"SCALAR"}],"asset":{"extras":{"author":"morsingh1404 (https://sketchfab.com/morsingh1404)","license":"CC-BY-4.0 (http://creativecommons.org/licenses/by/4.0/)","source":"https://sketchfab.com/3d-models/earth-planet-procedual-3d-model-95e765e71b5f43db82c05922d7571f23","title":"Earth, Planet, Procedual, 3d model"},"generator":"Sketchfab-16.33.0","version":"2.0"},"bufferViews":[{"buffer":0,"byteLength":54144,"name":"floatBufferViews","target":34963},{"buffer":0,"byteLength":19192,"byteOffset":54144,"byteStride":8,"name":"floatBufferViews","target":34962},{"buffer":0,"byteLength":57576,"byteOffset":73336,"byteStride":12,"name":"floatBufferViews","target":34962}],"buffers":[{"byteLength":130912,"uri":"data:application/octet-stream;base64,"}],"images":[{"uri":"data:application/octet-stream;base64,"}],"materials":[{"doubleSided":true,"name":"Plastic","pbrMetallicRoughness":{"baseColorTexture":{"index":0},"metallicFactor":0,"roughnessFactor":0.029}}],"meshes":[{"name":"Object_0","primitives":[{"attributes":{"NORMAL":1,"POSITION":0,"TEXCOORD_0":2},"indices":3,"material":0,"mode":4}]}],"nodes":[{"children":[1],"matrix":[1,0,0,0,0,2.220446049250313e-16,-1,0,0,1,2.220446049250313e-16,0,0,0,0,1],"name":"Sketchfab_model"},{"children":[2],"name":"root"},{"children":[3],"matrix":[1,0,0,0,0,2.220446049250313e-16,1,0,0,-1,2.220446049250313e-16,0,0,0,0,1],"name":"GLTF_SceneRootNode"},{"children":[4],"matrix":[2.9303781986236572,0,0,0,0,2.9303781986236572,0,0,0,0,2.9303781986236572,0,0,0,0,1],"name":"Sphere_1"},{"mesh":0,"name":"Object_4"}],"samplers":[{"magFilter":9729,"minFilter":9729,"wrapS":10497,"wrapT":10497}],"scene":0,"scenes":[{"name":"Sketchfab_Scene","nodes":[0]}],"textures":[{"sampler":0,"source":0}]}